<mxfile host="app.diagrams.net" modified="2024-08-23T14:32:08.169Z" agent="Mozilla/5.0 (Macintosh; Intel Mac OS X 10_15_7) AppleWebKit/537.36 (KHTML, like Gecko) Chrome/127.0.0.0 Safari/537.36" etag="xCU0FtAppuxH1LamUKzH" version="24.7.3" type="device" pages="4">
  <diagram name="ERM - Database" id="e56a1550-8fbb-45ad-956c-1786394a9013">
    <mxGraphModel dx="1004" dy="674" grid="1" gridSize="10" guides="1" tooltips="1" connect="1" arrows="1" fold="1" page="1" pageScale="1" pageWidth="1100" pageHeight="850" background="none" math="0" shadow="0">
      <root>
        <mxCell id="0" />
        <mxCell id="1" parent="0" />
        <mxCell id="2e49270ec7c68f3f-1" value="Questions" style="swimlane;html=1;fontStyle=0;childLayout=stackLayout;horizontal=1;startSize=26;fillColor=#e0e0e0;horizontalStack=0;resizeParent=1;resizeLast=0;collapsible=1;marginBottom=0;swimlaneFillColor=#ffffff;align=center;rounded=0;shadow=0;comic=0;labelBackgroundColor=none;strokeWidth=1;fontFamily=Verdana;fontSize=14" parent="1" vertex="1">
          <mxGeometry x="430" y="210" width="310" height="142" as="geometry" />
        </mxCell>
        <mxCell id="2e49270ec7c68f3f-2" value="qestion_id : int auto increment" style="shape=partialRectangle;top=0;left=0;right=0;bottom=0;html=1;align=left;verticalAlign=middle;fillColor=none;spacingLeft=60;spacingRight=4;whiteSpace=wrap;overflow=hidden;rotatable=0;points=[[0,0.5],[1,0.5]];portConstraint=eastwest;dropTarget=0;fontStyle=5;" parent="2e49270ec7c68f3f-1" vertex="1">
          <mxGeometry y="26" width="310" height="30" as="geometry" />
        </mxCell>
        <mxCell id="2e49270ec7c68f3f-3" value="PK" style="shape=partialRectangle;fontStyle=1;top=0;left=0;bottom=0;html=1;fillColor=none;align=left;verticalAlign=middle;spacingLeft=4;spacingRight=4;whiteSpace=wrap;overflow=hidden;rotatable=0;points=[];portConstraint=eastwest;part=1;" parent="2e49270ec7c68f3f-2" vertex="1" connectable="0">
          <mxGeometry width="56" height="30" as="geometry" />
        </mxCell>
        <mxCell id="2e49270ec7c68f3f-6" value="question_type : varchar(50)" style="shape=partialRectangle;top=0;left=0;right=0;bottom=0;html=1;align=left;verticalAlign=top;fillColor=none;spacingLeft=60;spacingRight=4;whiteSpace=wrap;overflow=hidden;rotatable=0;points=[[0,0.5],[1,0.5]];portConstraint=eastwest;dropTarget=0;" parent="2e49270ec7c68f3f-1" vertex="1">
          <mxGeometry y="56" width="310" height="26" as="geometry" />
        </mxCell>
        <mxCell id="2e49270ec7c68f3f-7" value="" style="shape=partialRectangle;top=0;left=0;bottom=0;html=1;fillColor=none;align=left;verticalAlign=top;spacingLeft=4;spacingRight=4;whiteSpace=wrap;overflow=hidden;rotatable=0;points=[];portConstraint=eastwest;part=1;" parent="2e49270ec7c68f3f-6" vertex="1" connectable="0">
          <mxGeometry width="56" height="26" as="geometry" />
        </mxCell>
        <mxCell id="2e49270ec7c68f3f-4" value="description : varchar (21000)" style="shape=partialRectangle;top=0;left=0;right=0;bottom=1;html=1;align=left;verticalAlign=middle;fillColor=none;spacingLeft=60;spacingRight=4;whiteSpace=wrap;overflow=hidden;rotatable=0;points=[[0,0.5],[1,0.5]];portConstraint=eastwest;dropTarget=0;fontStyle=5;" parent="2e49270ec7c68f3f-1" vertex="1">
          <mxGeometry y="82" width="310" height="30" as="geometry" />
        </mxCell>
        <mxCell id="2e49270ec7c68f3f-5" value="" style="shape=partialRectangle;fontStyle=1;top=0;left=0;bottom=0;html=1;fillColor=none;align=left;verticalAlign=middle;spacingLeft=4;spacingRight=4;whiteSpace=wrap;overflow=hidden;rotatable=0;points=[];portConstraint=eastwest;part=1;" parent="2e49270ec7c68f3f-4" vertex="1" connectable="0">
          <mxGeometry width="56" height="30" as="geometry" />
        </mxCell>
        <mxCell id="pJ70Ytkd2DRX801ZRL-j-10" value="user_id : int" style="shape=partialRectangle;top=0;left=0;right=0;bottom=1;html=1;align=left;verticalAlign=middle;fillColor=none;spacingLeft=60;spacingRight=4;whiteSpace=wrap;overflow=hidden;rotatable=0;points=[[0,0.5],[1,0.5]];portConstraint=eastwest;dropTarget=0;fontStyle=5;" vertex="1" parent="2e49270ec7c68f3f-1">
          <mxGeometry y="112" width="310" height="30" as="geometry" />
        </mxCell>
        <mxCell id="pJ70Ytkd2DRX801ZRL-j-11" value="FK" style="shape=partialRectangle;fontStyle=1;top=0;left=0;bottom=0;html=1;fillColor=none;align=left;verticalAlign=middle;spacingLeft=4;spacingRight=4;whiteSpace=wrap;overflow=hidden;rotatable=0;points=[];portConstraint=eastwest;part=1;" vertex="1" connectable="0" parent="pJ70Ytkd2DRX801ZRL-j-10">
          <mxGeometry width="56" height="30" as="geometry" />
        </mxCell>
        <mxCell id="2e49270ec7c68f3f-8" value="Test_Question" style="swimlane;html=1;fontStyle=0;childLayout=stackLayout;horizontal=1;startSize=26;fillColor=#e0e0e0;horizontalStack=0;resizeParent=1;resizeLast=0;collapsible=1;marginBottom=0;swimlaneFillColor=#ffffff;align=center;rounded=0;shadow=0;comic=0;labelBackgroundColor=none;strokeWidth=1;fontFamily=Verdana;fontSize=14;swimlaneLine=1;" parent="1" vertex="1">
          <mxGeometry x="120" y="372" width="270" height="150" as="geometry" />
        </mxCell>
        <mxCell id="2e49270ec7c68f3f-9" value="test_question_id : int auto increment" style="shape=partialRectangle;top=0;left=0;right=0;bottom=1;html=1;align=left;verticalAlign=middle;fillColor=none;spacingLeft=34;spacingRight=4;whiteSpace=wrap;overflow=hidden;rotatable=0;points=[[0,0.5],[1,0.5]];portConstraint=eastwest;dropTarget=0;fontStyle=5;" parent="2e49270ec7c68f3f-8" vertex="1">
          <mxGeometry y="26" width="270" height="30" as="geometry" />
        </mxCell>
        <mxCell id="2e49270ec7c68f3f-10" value="PK" style="shape=partialRectangle;top=0;left=0;bottom=0;html=1;fillColor=none;align=left;verticalAlign=middle;spacingLeft=4;spacingRight=4;whiteSpace=wrap;overflow=hidden;rotatable=0;points=[];portConstraint=eastwest;part=1;" parent="2e49270ec7c68f3f-9" vertex="1" connectable="0">
          <mxGeometry width="30" height="30" as="geometry" />
        </mxCell>
        <mxCell id="2e49270ec7c68f3f-11" value="test_id : guid" style="shape=partialRectangle;top=0;left=0;right=0;bottom=0;html=1;align=left;verticalAlign=top;fillColor=none;spacingLeft=34;spacingRight=4;whiteSpace=wrap;overflow=hidden;rotatable=0;points=[[0,0.5],[1,0.5]];portConstraint=eastwest;dropTarget=0;" parent="2e49270ec7c68f3f-8" vertex="1">
          <mxGeometry y="56" width="270" height="26" as="geometry" />
        </mxCell>
        <mxCell id="2e49270ec7c68f3f-12" value="FK1" style="shape=partialRectangle;top=0;left=0;bottom=0;html=1;fillColor=none;align=left;verticalAlign=top;spacingLeft=4;spacingRight=4;whiteSpace=wrap;overflow=hidden;rotatable=0;points=[];portConstraint=eastwest;part=1;" parent="2e49270ec7c68f3f-11" vertex="1" connectable="0">
          <mxGeometry width="30" height="26" as="geometry" />
        </mxCell>
        <mxCell id="2e49270ec7c68f3f-13" value="question_type : varchar(50)" style="shape=partialRectangle;top=0;left=0;right=0;bottom=0;html=1;align=left;verticalAlign=top;fillColor=none;spacingLeft=34;spacingRight=4;whiteSpace=wrap;overflow=hidden;rotatable=0;points=[[0,0.5],[1,0.5]];portConstraint=eastwest;dropTarget=0;" parent="2e49270ec7c68f3f-8" vertex="1">
          <mxGeometry y="82" width="270" height="26" as="geometry" />
        </mxCell>
        <mxCell id="2e49270ec7c68f3f-14" value="" style="shape=partialRectangle;top=0;left=0;bottom=0;html=1;fillColor=none;align=left;verticalAlign=top;spacingLeft=4;spacingRight=4;whiteSpace=wrap;overflow=hidden;rotatable=0;points=[];portConstraint=eastwest;part=1;" parent="2e49270ec7c68f3f-13" vertex="1" connectable="0">
          <mxGeometry width="30" height="26" as="geometry" />
        </mxCell>
        <mxCell id="2e49270ec7c68f3f-15" value="description : varchar(21000)" style="shape=partialRectangle;top=0;left=0;right=0;bottom=0;html=1;align=left;verticalAlign=top;fillColor=none;spacingLeft=34;spacingRight=4;whiteSpace=wrap;overflow=hidden;rotatable=0;points=[[0,0.5],[1,0.5]];portConstraint=eastwest;dropTarget=0;" parent="2e49270ec7c68f3f-8" vertex="1">
          <mxGeometry y="108" width="270" height="26" as="geometry" />
        </mxCell>
        <mxCell id="2e49270ec7c68f3f-16" value="" style="shape=partialRectangle;top=0;left=0;bottom=0;html=1;fillColor=none;align=left;verticalAlign=top;spacingLeft=4;spacingRight=4;whiteSpace=wrap;overflow=hidden;rotatable=0;points=[];portConstraint=eastwest;part=1;" parent="2e49270ec7c68f3f-15" vertex="1" connectable="0">
          <mxGeometry width="30" height="26" as="geometry" />
        </mxCell>
        <mxCell id="2e49270ec7c68f3f-30" value="Tests" style="swimlane;html=1;fontStyle=0;childLayout=stackLayout;horizontal=1;startSize=26;fillColor=#e0e0e0;horizontalStack=0;resizeParent=1;resizeLast=0;collapsible=1;marginBottom=0;swimlaneFillColor=#ffffff;align=center;rounded=0;shadow=0;comic=0;labelBackgroundColor=none;strokeWidth=1;fontFamily=Verdana;fontSize=14" parent="1" vertex="1">
          <mxGeometry x="140" y="550" width="250" height="200" as="geometry" />
        </mxCell>
        <mxCell id="2e49270ec7c68f3f-39" value="" style="shape=partialRectangle;top=0;left=0;right=0;bottom=0;html=1;align=left;verticalAlign=top;fillColor=none;spacingLeft=34;spacingRight=4;whiteSpace=wrap;overflow=hidden;rotatable=0;points=[[0,0.5],[1,0.5]];portConstraint=eastwest;dropTarget=0;" parent="2e49270ec7c68f3f-30" vertex="1">
          <mxGeometry y="26" width="250" height="10" as="geometry" />
        </mxCell>
        <mxCell id="2e49270ec7c68f3f-40" value="" style="shape=partialRectangle;top=0;left=0;bottom=0;html=1;fillColor=none;align=left;verticalAlign=top;spacingLeft=4;spacingRight=4;whiteSpace=wrap;overflow=hidden;rotatable=0;points=[];portConstraint=eastwest;part=1;" parent="2e49270ec7c68f3f-39" vertex="1" connectable="0">
          <mxGeometry width="30" height="10" as="geometry" />
        </mxCell>
        <mxCell id="2e49270ec7c68f3f-31" value="test_id : int auto increment" style="shape=partialRectangle;top=0;left=0;right=0;bottom=1;html=1;align=left;verticalAlign=middle;fillColor=none;spacingLeft=34;spacingRight=4;whiteSpace=wrap;overflow=hidden;rotatable=0;points=[[0,0.5],[1,0.5]];portConstraint=eastwest;dropTarget=0;fontStyle=5;" parent="2e49270ec7c68f3f-30" vertex="1">
          <mxGeometry y="36" width="250" height="30" as="geometry" />
        </mxCell>
        <mxCell id="2e49270ec7c68f3f-32" value="PK" style="shape=partialRectangle;top=0;left=0;bottom=0;html=1;fillColor=none;align=left;verticalAlign=middle;spacingLeft=4;spacingRight=4;whiteSpace=wrap;overflow=hidden;rotatable=0;points=[];portConstraint=eastwest;part=1;" parent="2e49270ec7c68f3f-31" vertex="1" connectable="0">
          <mxGeometry width="30" height="30" as="geometry" />
        </mxCell>
        <mxCell id="2e49270ec7c68f3f-33" value="max_score : int" style="shape=partialRectangle;top=0;left=0;right=0;bottom=0;html=1;align=left;verticalAlign=top;fillColor=none;spacingLeft=34;spacingRight=4;whiteSpace=wrap;overflow=hidden;rotatable=0;points=[[0,0.5],[1,0.5]];portConstraint=eastwest;dropTarget=0;" parent="2e49270ec7c68f3f-30" vertex="1">
          <mxGeometry y="66" width="250" height="26" as="geometry" />
        </mxCell>
        <mxCell id="2e49270ec7c68f3f-34" value="" style="shape=partialRectangle;top=0;left=0;bottom=0;html=1;fillColor=none;align=left;verticalAlign=top;spacingLeft=4;spacingRight=4;whiteSpace=wrap;overflow=hidden;rotatable=0;points=[];portConstraint=eastwest;part=1;" parent="2e49270ec7c68f3f-33" vertex="1" connectable="0">
          <mxGeometry width="30" height="26" as="geometry" />
        </mxCell>
        <mxCell id="2e49270ec7c68f3f-35" value="date_created : date" style="shape=partialRectangle;top=0;left=0;right=0;bottom=0;html=1;align=left;verticalAlign=top;fillColor=none;spacingLeft=34;spacingRight=4;whiteSpace=wrap;overflow=hidden;rotatable=0;points=[[0,0.5],[1,0.5]];portConstraint=eastwest;dropTarget=0;" parent="2e49270ec7c68f3f-30" vertex="1">
          <mxGeometry y="92" width="250" height="26" as="geometry" />
        </mxCell>
        <mxCell id="2e49270ec7c68f3f-36" value="" style="shape=partialRectangle;top=0;left=0;bottom=0;html=1;fillColor=none;align=left;verticalAlign=top;spacingLeft=4;spacingRight=4;whiteSpace=wrap;overflow=hidden;rotatable=0;points=[];portConstraint=eastwest;part=1;" parent="2e49270ec7c68f3f-35" vertex="1" connectable="0">
          <mxGeometry width="30" height="26" as="geometry" />
        </mxCell>
        <mxCell id="2e49270ec7c68f3f-37" value="total_score : int" style="shape=partialRectangle;top=0;left=0;right=0;bottom=0;html=1;align=left;verticalAlign=top;fillColor=none;spacingLeft=34;spacingRight=4;whiteSpace=wrap;overflow=hidden;rotatable=0;points=[[0,0.5],[1,0.5]];portConstraint=eastwest;dropTarget=0;" parent="2e49270ec7c68f3f-30" vertex="1">
          <mxGeometry y="118" width="250" height="26" as="geometry" />
        </mxCell>
        <mxCell id="2e49270ec7c68f3f-38" value="" style="shape=partialRectangle;top=0;left=0;bottom=0;html=1;fillColor=none;align=left;verticalAlign=top;spacingLeft=4;spacingRight=4;whiteSpace=wrap;overflow=hidden;rotatable=0;points=[];portConstraint=eastwest;part=1;" parent="2e49270ec7c68f3f-37" vertex="1" connectable="0">
          <mxGeometry width="30" height="26" as="geometry" />
        </mxCell>
        <mxCell id="pJ70Ytkd2DRX801ZRL-j-21" value="percentage : double" style="shape=partialRectangle;top=0;left=0;right=0;bottom=0;html=1;align=left;verticalAlign=top;fillColor=none;spacingLeft=34;spacingRight=4;whiteSpace=wrap;overflow=hidden;rotatable=0;points=[[0,0.5],[1,0.5]];portConstraint=eastwest;dropTarget=0;" vertex="1" parent="2e49270ec7c68f3f-30">
          <mxGeometry y="144" width="250" height="26" as="geometry" />
        </mxCell>
        <mxCell id="pJ70Ytkd2DRX801ZRL-j-22" value="" style="shape=partialRectangle;top=0;left=0;bottom=0;html=1;fillColor=none;align=left;verticalAlign=top;spacingLeft=4;spacingRight=4;whiteSpace=wrap;overflow=hidden;rotatable=0;points=[];portConstraint=eastwest;part=1;" vertex="1" connectable="0" parent="pJ70Ytkd2DRX801ZRL-j-21">
          <mxGeometry width="30" height="26" as="geometry" />
        </mxCell>
        <mxCell id="pJ70Ytkd2DRX801ZRL-j-14" value="user_id : int" style="shape=partialRectangle;top=0;left=0;right=0;bottom=1;html=1;align=left;verticalAlign=middle;fillColor=none;spacingLeft=34;spacingRight=4;whiteSpace=wrap;overflow=hidden;rotatable=0;points=[[0,0.5],[1,0.5]];portConstraint=eastwest;dropTarget=0;fontStyle=5;" vertex="1" parent="2e49270ec7c68f3f-30">
          <mxGeometry y="170" width="250" height="30" as="geometry" />
        </mxCell>
        <mxCell id="pJ70Ytkd2DRX801ZRL-j-15" value="FK" style="shape=partialRectangle;top=0;left=0;bottom=0;html=1;fillColor=none;align=left;verticalAlign=middle;spacingLeft=4;spacingRight=4;whiteSpace=wrap;overflow=hidden;rotatable=0;points=[];portConstraint=eastwest;part=1;" vertex="1" connectable="0" parent="pJ70Ytkd2DRX801ZRL-j-14">
          <mxGeometry width="30" height="30" as="geometry" />
        </mxCell>
        <mxCell id="2e49270ec7c68f3f-58" value="" style="edgeStyle=orthogonalEdgeStyle;html=1;endArrow=ERzeroToMany;startArrow=ERmandOne;labelBackgroundColor=none;fontFamily=Verdana;fontSize=14;entryX=0;entryY=0.308;entryPerimeter=0;exitX=0;exitY=0.5;rounded=0;curved=0;" parent="1" source="2e49270ec7c68f3f-31" target="2e49270ec7c68f3f-15" edge="1">
          <mxGeometry width="100" height="100" relative="1" as="geometry">
            <mxPoint x="10" y="638" as="sourcePoint" />
            <mxPoint x="110" y="538" as="targetPoint" />
            <Array as="points">
              <mxPoint x="80" y="601" />
              <mxPoint x="80" y="488" />
            </Array>
          </mxGeometry>
        </mxCell>
        <mxCell id="2e49270ec7c68f3f-80" value="Anwers" style="swimlane;html=1;fontStyle=0;childLayout=stackLayout;horizontal=1;startSize=26;fillColor=#e0e0e0;horizontalStack=0;resizeParent=1;resizeLast=0;collapsible=1;marginBottom=0;swimlaneFillColor=#ffffff;align=center;rounded=0;shadow=0;comic=0;labelBackgroundColor=none;strokeWidth=1;fontFamily=Verdana;fontSize=14" parent="1" vertex="1">
          <mxGeometry x="80" y="210" width="270" height="150" as="geometry" />
        </mxCell>
        <mxCell id="2e49270ec7c68f3f-81" value="answer_id : int auto_increment" style="shape=partialRectangle;top=0;left=0;right=0;bottom=1;html=1;align=left;verticalAlign=middle;fillColor=none;spacingLeft=34;spacingRight=4;whiteSpace=wrap;overflow=hidden;rotatable=0;points=[[0,0.5],[1,0.5]];portConstraint=eastwest;dropTarget=0;fontStyle=5;" parent="2e49270ec7c68f3f-80" vertex="1">
          <mxGeometry y="26" width="270" height="30" as="geometry" />
        </mxCell>
        <mxCell id="2e49270ec7c68f3f-82" value="PK" style="shape=partialRectangle;top=0;left=0;bottom=0;html=1;fillColor=none;align=left;verticalAlign=middle;spacingLeft=4;spacingRight=4;whiteSpace=wrap;overflow=hidden;rotatable=0;points=[];portConstraint=eastwest;part=1;" parent="2e49270ec7c68f3f-81" vertex="1" connectable="0">
          <mxGeometry width="30" height="30" as="geometry" />
        </mxCell>
        <mxCell id="2e49270ec7c68f3f-83" value="description : varchar(255)" style="shape=partialRectangle;top=0;left=0;right=0;bottom=0;html=1;align=left;verticalAlign=top;fillColor=none;spacingLeft=34;spacingRight=4;whiteSpace=wrap;overflow=hidden;rotatable=0;points=[[0,0.5],[1,0.5]];portConstraint=eastwest;dropTarget=0;" parent="2e49270ec7c68f3f-80" vertex="1">
          <mxGeometry y="56" width="270" height="26" as="geometry" />
        </mxCell>
        <mxCell id="2e49270ec7c68f3f-84" value="" style="shape=partialRectangle;top=0;left=0;bottom=0;html=1;fillColor=none;align=left;verticalAlign=top;spacingLeft=4;spacingRight=4;whiteSpace=wrap;overflow=hidden;rotatable=0;points=[];portConstraint=eastwest;part=1;" parent="2e49270ec7c68f3f-83" vertex="1" connectable="0">
          <mxGeometry width="30" height="26" as="geometry" />
        </mxCell>
        <mxCell id="_BohQBokuIp6Zntn6Am6-5" value="is_correct : boolean" style="shape=partialRectangle;top=0;left=0;right=0;bottom=0;html=1;align=left;verticalAlign=top;fillColor=none;spacingLeft=34;spacingRight=4;whiteSpace=wrap;overflow=hidden;rotatable=0;points=[[0,0.5],[1,0.5]];portConstraint=eastwest;dropTarget=0;" parent="2e49270ec7c68f3f-80" vertex="1">
          <mxGeometry y="82" width="270" height="26" as="geometry" />
        </mxCell>
        <mxCell id="_BohQBokuIp6Zntn6Am6-6" value="" style="shape=partialRectangle;top=0;left=0;bottom=0;html=1;fillColor=none;align=left;verticalAlign=top;spacingLeft=4;spacingRight=4;whiteSpace=wrap;overflow=hidden;rotatable=0;points=[];portConstraint=eastwest;part=1;" parent="_BohQBokuIp6Zntn6Am6-5" vertex="1" connectable="0">
          <mxGeometry width="30" height="26" as="geometry" />
        </mxCell>
        <mxCell id="pJ70Ytkd2DRX801ZRL-j-19" value="question_id : int" style="shape=partialRectangle;top=0;left=0;right=0;bottom=1;html=1;align=left;verticalAlign=middle;fillColor=none;spacingLeft=34;spacingRight=4;whiteSpace=wrap;overflow=hidden;rotatable=0;points=[[0,0.5],[1,0.5]];portConstraint=eastwest;dropTarget=0;fontStyle=5;" vertex="1" parent="2e49270ec7c68f3f-80">
          <mxGeometry y="108" width="270" height="30" as="geometry" />
        </mxCell>
        <mxCell id="pJ70Ytkd2DRX801ZRL-j-20" value="FK" style="shape=partialRectangle;top=0;left=0;bottom=0;html=1;fillColor=none;align=left;verticalAlign=middle;spacingLeft=4;spacingRight=4;whiteSpace=wrap;overflow=hidden;rotatable=0;points=[];portConstraint=eastwest;part=1;" vertex="1" connectable="0" parent="pJ70Ytkd2DRX801ZRL-j-19">
          <mxGeometry width="30" height="30" as="geometry" />
        </mxCell>
        <mxCell id="2e49270ec7c68f3f-91" value="" style="edgeStyle=orthogonalEdgeStyle;html=1;endArrow=ERmandOne;endFill=0;labelBackgroundColor=none;fontFamily=Verdana;fontSize=14;entryX=0;entryY=0.5;exitX=1;exitY=0.5;startArrow=ERoneToMany;startFill=0;" parent="1" source="2e49270ec7c68f3f-81" target="2e49270ec7c68f3f-2" edge="1">
          <mxGeometry width="100" height="100" relative="1" as="geometry">
            <mxPoint x="120" y="152" as="sourcePoint" />
            <mxPoint x="220" y="52" as="targetPoint" />
            <Array as="points">
              <mxPoint x="430" y="251" />
            </Array>
          </mxGeometry>
        </mxCell>
        <mxCell id="wKS20MoQ2Mlh76fUvkAb-3" value="Question_Answer_Option" style="swimlane;html=1;fontStyle=0;childLayout=stackLayout;horizontal=1;startSize=26;fillColor=#e0e0e0;horizontalStack=0;resizeParent=1;resizeLast=0;collapsible=1;marginBottom=0;swimlaneFillColor=#ffffff;align=center;rounded=0;shadow=0;comic=0;labelBackgroundColor=none;strokeWidth=1;fontFamily=Verdana;fontSize=14" parent="1" vertex="1">
          <mxGeometry x="430" y="372" width="250" height="168" as="geometry" />
        </mxCell>
        <mxCell id="wKS20MoQ2Mlh76fUvkAb-4" value="option_id : int auto_increment" style="shape=partialRectangle;top=0;left=0;right=0;bottom=0;html=1;align=left;verticalAlign=middle;fillColor=none;spacingLeft=60;spacingRight=4;whiteSpace=wrap;overflow=hidden;rotatable=0;points=[[0,0.5],[1,0.5]];portConstraint=eastwest;dropTarget=0;fontStyle=5;strokeColor=default;" parent="wKS20MoQ2Mlh76fUvkAb-3" vertex="1">
          <mxGeometry y="26" width="250" height="30" as="geometry" />
        </mxCell>
        <mxCell id="wKS20MoQ2Mlh76fUvkAb-5" value="PK" style="shape=partialRectangle;fontStyle=1;top=0;left=0;bottom=0;html=1;fillColor=none;align=left;verticalAlign=middle;spacingLeft=4;spacingRight=4;whiteSpace=wrap;overflow=hidden;rotatable=0;points=[];portConstraint=eastwest;part=1;" parent="wKS20MoQ2Mlh76fUvkAb-4" vertex="1" connectable="0">
          <mxGeometry width="56" height="30" as="geometry" />
        </mxCell>
        <mxCell id="_BohQBokuIp6Zntn6Am6-2" value="test_question_id : guid" style="shape=partialRectangle;top=0;left=0;right=0;bottom=0;html=1;align=left;verticalAlign=middle;fillColor=none;spacingLeft=60;spacingRight=4;whiteSpace=wrap;overflow=hidden;rotatable=0;points=[[0,0.5],[1,0.5]];portConstraint=eastwest;dropTarget=0;fontStyle=5;strokeColor=default;" parent="wKS20MoQ2Mlh76fUvkAb-3" vertex="1">
          <mxGeometry y="56" width="250" height="30" as="geometry" />
        </mxCell>
        <mxCell id="_BohQBokuIp6Zntn6Am6-3" value="FK1" style="shape=partialRectangle;fontStyle=1;top=0;left=0;bottom=0;html=1;fillColor=none;align=left;verticalAlign=middle;spacingLeft=4;spacingRight=4;whiteSpace=wrap;overflow=hidden;rotatable=0;points=[];portConstraint=eastwest;part=1;" parent="_BohQBokuIp6Zntn6Am6-2" vertex="1" connectable="0">
          <mxGeometry width="56" height="30" as="geometry" />
        </mxCell>
        <mxCell id="wKS20MoQ2Mlh76fUvkAb-6" value="Is_correct : boolean" style="shape=partialRectangle;top=0;left=0;right=0;bottom=0;html=1;align=left;verticalAlign=top;fillColor=none;spacingLeft=60;spacingRight=4;whiteSpace=wrap;overflow=hidden;rotatable=0;points=[[0,0.5],[1,0.5]];portConstraint=eastwest;dropTarget=0;" parent="wKS20MoQ2Mlh76fUvkAb-3" vertex="1">
          <mxGeometry y="86" width="250" height="26" as="geometry" />
        </mxCell>
        <mxCell id="wKS20MoQ2Mlh76fUvkAb-7" value="" style="shape=partialRectangle;top=0;left=0;bottom=0;html=1;fillColor=none;align=left;verticalAlign=top;spacingLeft=4;spacingRight=4;whiteSpace=wrap;overflow=hidden;rotatable=0;points=[];portConstraint=eastwest;part=1;" parent="wKS20MoQ2Mlh76fUvkAb-6" vertex="1" connectable="0">
          <mxGeometry width="56" height="26" as="geometry" />
        </mxCell>
        <mxCell id="wKS20MoQ2Mlh76fUvkAb-8" value="description : varchar(21000)" style="shape=partialRectangle;top=0;left=0;right=0;bottom=1;html=1;align=left;verticalAlign=middle;fillColor=none;spacingLeft=60;spacingRight=4;whiteSpace=wrap;overflow=hidden;rotatable=0;points=[[0,0.5],[1,0.5]];portConstraint=eastwest;dropTarget=0;fontStyle=0;strokeColor=none;" parent="wKS20MoQ2Mlh76fUvkAb-3" vertex="1">
          <mxGeometry y="112" width="250" height="30" as="geometry" />
        </mxCell>
        <mxCell id="wKS20MoQ2Mlh76fUvkAb-9" value="" style="shape=partialRectangle;fontStyle=1;top=0;left=0;bottom=0;html=1;fillColor=none;align=left;verticalAlign=middle;spacingLeft=4;spacingRight=4;whiteSpace=wrap;overflow=hidden;rotatable=0;points=[];portConstraint=eastwest;part=1;" parent="wKS20MoQ2Mlh76fUvkAb-8" vertex="1" connectable="0">
          <mxGeometry width="56" height="30" as="geometry" />
        </mxCell>
        <mxCell id="pJ70Ytkd2DRX801ZRL-j-1" value="Is_selected : boolean" style="shape=partialRectangle;top=0;left=0;right=0;bottom=0;html=1;align=left;verticalAlign=top;fillColor=none;spacingLeft=60;spacingRight=4;whiteSpace=wrap;overflow=hidden;rotatable=0;points=[[0,0.5],[1,0.5]];portConstraint=eastwest;dropTarget=0;" vertex="1" parent="wKS20MoQ2Mlh76fUvkAb-3">
          <mxGeometry y="142" width="250" height="26" as="geometry" />
        </mxCell>
        <mxCell id="pJ70Ytkd2DRX801ZRL-j-2" value="" style="shape=partialRectangle;top=0;left=0;bottom=0;html=1;fillColor=none;align=left;verticalAlign=top;spacingLeft=4;spacingRight=4;whiteSpace=wrap;overflow=hidden;rotatable=0;points=[];portConstraint=eastwest;part=1;" vertex="1" connectable="0" parent="pJ70Ytkd2DRX801ZRL-j-1">
          <mxGeometry width="56" height="26" as="geometry" />
        </mxCell>
        <mxCell id="_BohQBokuIp6Zntn6Am6-4" style="edgeStyle=orthogonalEdgeStyle;rounded=0;orthogonalLoop=1;jettySize=auto;html=1;exitX=1;exitY=0.5;exitDx=0;exitDy=0;entryX=0;entryY=0.5;entryDx=0;entryDy=0;endArrow=ERoneToMany;endFill=0;startArrow=ERmandOne;startFill=0;" parent="1" source="2e49270ec7c68f3f-9" target="_BohQBokuIp6Zntn6Am6-2" edge="1">
          <mxGeometry relative="1" as="geometry" />
        </mxCell>
        <mxCell id="pJ70Ytkd2DRX801ZRL-j-3" value="Users" style="swimlane;html=1;fontStyle=0;childLayout=stackLayout;horizontal=1;startSize=26;fillColor=#e0e0e0;horizontalStack=0;resizeParent=1;resizeLast=0;collapsible=1;marginBottom=0;swimlaneFillColor=#ffffff;align=center;rounded=0;shadow=0;comic=0;labelBackgroundColor=none;strokeWidth=1;fontFamily=Verdana;fontSize=14" vertex="1" parent="1">
          <mxGeometry x="780" y="668" width="270" height="112" as="geometry" />
        </mxCell>
        <mxCell id="pJ70Ytkd2DRX801ZRL-j-4" value="user_id: int AUTO INCREMENT" style="shape=partialRectangle;top=0;left=0;right=0;bottom=0;html=1;align=left;verticalAlign=middle;fillColor=none;spacingLeft=60;spacingRight=4;whiteSpace=wrap;overflow=hidden;rotatable=0;points=[[0,0.5],[1,0.5]];portConstraint=eastwest;dropTarget=0;fontStyle=5;" vertex="1" parent="pJ70Ytkd2DRX801ZRL-j-3">
          <mxGeometry y="26" width="270" height="30" as="geometry" />
        </mxCell>
        <mxCell id="pJ70Ytkd2DRX801ZRL-j-5" value="PK" style="shape=partialRectangle;fontStyle=1;top=0;left=0;bottom=0;html=1;fillColor=none;align=left;verticalAlign=middle;spacingLeft=4;spacingRight=4;whiteSpace=wrap;overflow=hidden;rotatable=0;points=[];portConstraint=eastwest;part=1;" vertex="1" connectable="0" parent="pJ70Ytkd2DRX801ZRL-j-4">
          <mxGeometry width="56" height="30" as="geometry" />
        </mxCell>
        <mxCell id="pJ70Ytkd2DRX801ZRL-j-6" value="username: varchar(50)" style="shape=partialRectangle;top=0;left=0;right=0;bottom=0;html=1;align=left;verticalAlign=top;fillColor=none;spacingLeft=60;spacingRight=4;whiteSpace=wrap;overflow=hidden;rotatable=0;points=[[0,0.5],[1,0.5]];portConstraint=eastwest;dropTarget=0;" vertex="1" parent="pJ70Ytkd2DRX801ZRL-j-3">
          <mxGeometry y="56" width="270" height="26" as="geometry" />
        </mxCell>
        <mxCell id="pJ70Ytkd2DRX801ZRL-j-7" value="" style="shape=partialRectangle;top=0;left=0;bottom=0;html=1;fillColor=none;align=left;verticalAlign=top;spacingLeft=4;spacingRight=4;whiteSpace=wrap;overflow=hidden;rotatable=0;points=[];portConstraint=eastwest;part=1;" vertex="1" connectable="0" parent="pJ70Ytkd2DRX801ZRL-j-6">
          <mxGeometry width="56" height="26" as="geometry" />
        </mxCell>
        <mxCell id="pJ70Ytkd2DRX801ZRL-j-8" value="password: varchar(50)" style="shape=partialRectangle;top=0;left=0;right=0;bottom=1;html=1;align=left;verticalAlign=middle;fillColor=none;spacingLeft=60;spacingRight=4;whiteSpace=wrap;overflow=hidden;rotatable=0;points=[[0,0.5],[1,0.5]];portConstraint=eastwest;dropTarget=0;fontStyle=5;" vertex="1" parent="pJ70Ytkd2DRX801ZRL-j-3">
          <mxGeometry y="82" width="270" height="30" as="geometry" />
        </mxCell>
        <mxCell id="pJ70Ytkd2DRX801ZRL-j-9" value="" style="shape=partialRectangle;fontStyle=1;top=0;left=0;bottom=0;html=1;fillColor=none;align=left;verticalAlign=middle;spacingLeft=4;spacingRight=4;whiteSpace=wrap;overflow=hidden;rotatable=0;points=[];portConstraint=eastwest;part=1;" vertex="1" connectable="0" parent="pJ70Ytkd2DRX801ZRL-j-8">
          <mxGeometry width="56" height="30" as="geometry" />
        </mxCell>
        <mxCell id="pJ70Ytkd2DRX801ZRL-j-16" style="edgeStyle=orthogonalEdgeStyle;rounded=0;orthogonalLoop=1;jettySize=auto;html=1;exitX=1;exitY=0.5;exitDx=0;exitDy=0;entryX=0;entryY=0.5;entryDx=0;entryDy=0;endArrow=ERzeroToOne;endFill=0;startArrow=ERoneToMany;startFill=0;" edge="1" parent="1" source="pJ70Ytkd2DRX801ZRL-j-14" target="pJ70Ytkd2DRX801ZRL-j-4">
          <mxGeometry relative="1" as="geometry" />
        </mxCell>
        <mxCell id="pJ70Ytkd2DRX801ZRL-j-18" style="edgeStyle=orthogonalEdgeStyle;rounded=0;orthogonalLoop=1;jettySize=auto;html=1;exitX=1;exitY=0.5;exitDx=0;exitDy=0;entryX=0;entryY=0.5;entryDx=0;entryDy=0;endArrow=ERzeroToOne;endFill=0;startArrow=ERoneToMany;startFill=0;" edge="1" parent="1" source="pJ70Ytkd2DRX801ZRL-j-10" target="pJ70Ytkd2DRX801ZRL-j-4">
          <mxGeometry relative="1" as="geometry" />
        </mxCell>
      </root>
    </mxGraphModel>
  </diagram>
  <diagram id="sPVKwmlpkJPtfwnjx5f2" name="Description">
    <mxGraphModel dx="954" dy="640" grid="1" gridSize="10" guides="1" tooltips="1" connect="1" arrows="1" fold="1" page="1" pageScale="1" pageWidth="827" pageHeight="1169" math="0" shadow="0">
      <root>
        <mxCell id="0" />
        <mxCell id="1" parent="0" />
        <mxCell id="65HwR7aqb1QvQJ7tsshp-1" value="&lt;h1 style=&quot;margin-top: 0px;&quot;&gt;EasyTest&lt;/h1&gt;&lt;p style=&quot;font-size: 15px;&quot;&gt;&lt;font style=&quot;font-size: 15px;&quot;&gt;The objective of the system is to allow users to create question lists with their correlating answers. Then take practice tests with a subset or all of the questions. The questions only have three types, single choice, fill in the missing word and multiple choice.&lt;/font&gt;&lt;/p&gt;&lt;p style=&quot;font-size: 15px;&quot;&gt;&lt;font style=&quot;font-size: 15px;&quot;&gt;The test results are then recorded and corrections are showed.&lt;/font&gt;&lt;/p&gt;&lt;p style=&quot;font-size: 15px;&quot;&gt;&lt;font style=&quot;font-size: 15px;&quot;&gt;A Simple dashboard with number of practice tests taken,avg score, highest percentage and lowest percentage.&amp;nbsp;&lt;/font&gt;&lt;/p&gt;&lt;p style=&quot;font-size: 15px;&quot;&gt;&lt;font style=&quot;font-size: 15px;&quot;&gt;This system will not have user management, authentication and authorization.&amp;nbsp;&lt;/font&gt;&lt;/p&gt;&lt;p style=&quot;font-size: 15px;&quot;&gt;&lt;font style=&quot;font-size: 15px;&quot;&gt;Requirements:&lt;/font&gt;&lt;/p&gt;&lt;p style=&quot;font-size: 15px;&quot;&gt;&lt;/p&gt;&lt;ul style=&quot;font-size: 15px;&quot;&gt;&lt;li style=&quot;&quot;&gt;&lt;font style=&quot;font-size: 15px;&quot;&gt;CRUD Questions and Answers.&lt;/font&gt;&lt;/li&gt;&lt;li style=&quot;&quot;&gt;&lt;font style=&quot;font-size: 15px;&quot;&gt;Dashboard&lt;/font&gt;&lt;/li&gt;&lt;li style=&quot;&quot;&gt;&lt;font style=&quot;font-size: 15px;&quot;&gt;CRUD Tests.&lt;/font&gt;&lt;/li&gt;&lt;li style=&quot;&quot;&gt;&lt;font style=&quot;font-size: 15px;&quot;&gt;Api Unit Tests.&lt;/font&gt;&lt;/li&gt;&lt;/ul&gt;&lt;p&gt;&lt;/p&gt;" style="text;html=1;whiteSpace=wrap;overflow=hidden;rounded=0;" vertex="1" parent="1">
          <mxGeometry x="40" y="40" width="750" height="440" as="geometry" />
        </mxCell>
      </root>
    </mxGraphModel>
  </diagram>
  <diagram id="_dmGNHBMwu6xDP2lxtdV" name="UI Flow">
    <mxGraphModel dx="1122" dy="753" grid="1" gridSize="10" guides="1" tooltips="1" connect="1" arrows="1" fold="1" page="1" pageScale="1" pageWidth="1169" pageHeight="827" math="0" shadow="0">
      <root>
        <mxCell id="0" />
        <mxCell id="1" parent="0" />
        <mxCell id="yvRGBc-eDfDbXJ4fkfTD-31" style="edgeStyle=orthogonalEdgeStyle;rounded=0;orthogonalLoop=1;jettySize=auto;html=1;entryX=0.5;entryY=0;entryDx=0;entryDy=0;" edge="1" parent="1" source="yvRGBc-eDfDbXJ4fkfTD-1" target="yvRGBc-eDfDbXJ4fkfTD-8">
          <mxGeometry relative="1" as="geometry" />
        </mxCell>
        <mxCell id="yvRGBc-eDfDbXJ4fkfTD-1" value="Login" style="rounded=0;whiteSpace=wrap;html=1;" vertex="1" parent="1">
          <mxGeometry x="85" y="120" width="120" height="50" as="geometry" />
        </mxCell>
        <mxCell id="yvRGBc-eDfDbXJ4fkfTD-12" style="edgeStyle=orthogonalEdgeStyle;rounded=0;orthogonalLoop=1;jettySize=auto;html=1;entryX=0.5;entryY=0;entryDx=0;entryDy=0;" edge="1" parent="1" source="yvRGBc-eDfDbXJ4fkfTD-8" target="yvRGBc-eDfDbXJ4fkfTD-11">
          <mxGeometry relative="1" as="geometry" />
        </mxCell>
        <mxCell id="yvRGBc-eDfDbXJ4fkfTD-14" style="edgeStyle=orthogonalEdgeStyle;rounded=0;orthogonalLoop=1;jettySize=auto;html=1;exitX=1;exitY=0.5;exitDx=0;exitDy=0;entryX=0.5;entryY=0;entryDx=0;entryDy=0;" edge="1" parent="1" source="yvRGBc-eDfDbXJ4fkfTD-8" target="yvRGBc-eDfDbXJ4fkfTD-13">
          <mxGeometry relative="1" as="geometry" />
        </mxCell>
        <mxCell id="yvRGBc-eDfDbXJ4fkfTD-16" style="edgeStyle=orthogonalEdgeStyle;rounded=0;orthogonalLoop=1;jettySize=auto;html=1;exitX=0;exitY=0.5;exitDx=0;exitDy=0;entryX=0.5;entryY=0;entryDx=0;entryDy=0;" edge="1" parent="1" source="yvRGBc-eDfDbXJ4fkfTD-8" target="yvRGBc-eDfDbXJ4fkfTD-15">
          <mxGeometry relative="1" as="geometry" />
        </mxCell>
        <mxCell id="yvRGBc-eDfDbXJ4fkfTD-8" value="Views" style="rounded=0;whiteSpace=wrap;html=1;" vertex="1" parent="1">
          <mxGeometry x="195" y="230" width="120" height="50" as="geometry" />
        </mxCell>
        <mxCell id="yvRGBc-eDfDbXJ4fkfTD-18" style="edgeStyle=orthogonalEdgeStyle;rounded=0;orthogonalLoop=1;jettySize=auto;html=1;exitX=0.5;exitY=1;exitDx=0;exitDy=0;entryX=0.5;entryY=0;entryDx=0;entryDy=0;" edge="1" parent="1" source="yvRGBc-eDfDbXJ4fkfTD-11" target="yvRGBc-eDfDbXJ4fkfTD-17">
          <mxGeometry relative="1" as="geometry" />
        </mxCell>
        <mxCell id="yvRGBc-eDfDbXJ4fkfTD-11" value="Questions" style="rounded=0;whiteSpace=wrap;html=1;" vertex="1" parent="1">
          <mxGeometry x="195" y="320" width="120" height="50" as="geometry" />
        </mxCell>
        <mxCell id="yvRGBc-eDfDbXJ4fkfTD-22" style="edgeStyle=orthogonalEdgeStyle;rounded=0;orthogonalLoop=1;jettySize=auto;html=1;entryX=0.5;entryY=0;entryDx=0;entryDy=0;" edge="1" parent="1" source="yvRGBc-eDfDbXJ4fkfTD-13" target="yvRGBc-eDfDbXJ4fkfTD-21">
          <mxGeometry relative="1" as="geometry" />
        </mxCell>
        <mxCell id="yvRGBc-eDfDbXJ4fkfTD-24" style="edgeStyle=orthogonalEdgeStyle;rounded=0;orthogonalLoop=1;jettySize=auto;html=1;exitX=1;exitY=0.5;exitDx=0;exitDy=0;" edge="1" parent="1" source="yvRGBc-eDfDbXJ4fkfTD-13" target="yvRGBc-eDfDbXJ4fkfTD-23">
          <mxGeometry relative="1" as="geometry" />
        </mxCell>
        <mxCell id="yvRGBc-eDfDbXJ4fkfTD-13" value="Tests" style="rounded=0;whiteSpace=wrap;html=1;" vertex="1" parent="1">
          <mxGeometry x="375" y="320" width="120" height="50" as="geometry" />
        </mxCell>
        <mxCell id="yvRGBc-eDfDbXJ4fkfTD-20" style="edgeStyle=orthogonalEdgeStyle;rounded=0;orthogonalLoop=1;jettySize=auto;html=1;" edge="1" parent="1" source="yvRGBc-eDfDbXJ4fkfTD-15" target="yvRGBc-eDfDbXJ4fkfTD-19">
          <mxGeometry relative="1" as="geometry" />
        </mxCell>
        <mxCell id="yvRGBc-eDfDbXJ4fkfTD-15" value="Dashboard" style="rounded=0;whiteSpace=wrap;html=1;" vertex="1" parent="1">
          <mxGeometry x="30" y="320" width="120" height="50" as="geometry" />
        </mxCell>
        <mxCell id="yvRGBc-eDfDbXJ4fkfTD-17" value="Create New Question" style="rounded=0;whiteSpace=wrap;html=1;" vertex="1" parent="1">
          <mxGeometry x="185" y="420" width="140" height="50" as="geometry" />
        </mxCell>
        <mxCell id="yvRGBc-eDfDbXJ4fkfTD-19" value="View Recent Completed Test" style="rounded=0;whiteSpace=wrap;html=1;" vertex="1" parent="1">
          <mxGeometry x="20" y="420" width="140" height="50" as="geometry" />
        </mxCell>
        <mxCell id="yvRGBc-eDfDbXJ4fkfTD-21" value="Take New Test" style="rounded=0;whiteSpace=wrap;html=1;" vertex="1" parent="1">
          <mxGeometry x="365" y="420" width="140" height="50" as="geometry" />
        </mxCell>
        <mxCell id="yvRGBc-eDfDbXJ4fkfTD-23" value="View Past Test" style="rounded=0;whiteSpace=wrap;html=1;" vertex="1" parent="1">
          <mxGeometry x="545" y="420" width="140" height="50" as="geometry" />
        </mxCell>
        <mxCell id="yvRGBc-eDfDbXJ4fkfTD-27" style="edgeStyle=orthogonalEdgeStyle;rounded=0;orthogonalLoop=1;jettySize=auto;html=1;exitX=0;exitY=0.5;exitDx=0;exitDy=0;entryX=1;entryY=0.5;entryDx=0;entryDy=0;" edge="1" parent="1" source="yvRGBc-eDfDbXJ4fkfTD-26" target="yvRGBc-eDfDbXJ4fkfTD-1">
          <mxGeometry relative="1" as="geometry" />
        </mxCell>
        <mxCell id="yvRGBc-eDfDbXJ4fkfTD-26" value="Sign Up" style="rounded=0;whiteSpace=wrap;html=1;" vertex="1" parent="1">
          <mxGeometry x="280" y="120" width="120" height="50" as="geometry" />
        </mxCell>
        <mxCell id="yvRGBc-eDfDbXJ4fkfTD-29" style="edgeStyle=orthogonalEdgeStyle;rounded=0;orthogonalLoop=1;jettySize=auto;html=1;exitX=0;exitY=0.5;exitDx=0;exitDy=0;entryX=0.5;entryY=0;entryDx=0;entryDy=0;" edge="1" parent="1" source="yvRGBc-eDfDbXJ4fkfTD-28" target="yvRGBc-eDfDbXJ4fkfTD-1">
          <mxGeometry relative="1" as="geometry" />
        </mxCell>
        <mxCell id="yvRGBc-eDfDbXJ4fkfTD-30" style="edgeStyle=orthogonalEdgeStyle;rounded=0;orthogonalLoop=1;jettySize=auto;html=1;exitX=1;exitY=0.5;exitDx=0;exitDy=0;" edge="1" parent="1" source="yvRGBc-eDfDbXJ4fkfTD-28" target="yvRGBc-eDfDbXJ4fkfTD-26">
          <mxGeometry relative="1" as="geometry" />
        </mxCell>
        <mxCell id="yvRGBc-eDfDbXJ4fkfTD-28" value="Start" style="ellipse;whiteSpace=wrap;html=1;aspect=fixed;" vertex="1" parent="1">
          <mxGeometry x="215" y="20" width="50" height="50" as="geometry" />
        </mxCell>
      </root>
    </mxGraphModel>
  </diagram>
  <diagram id="p1aYjKRvvBQjg5NG2pX3" name="Sequence Diagram">
    <mxGraphModel dx="3701" dy="3395" grid="1" gridSize="10" guides="1" tooltips="1" connect="1" arrows="1" fold="1" page="1" pageScale="1" pageWidth="1169" pageHeight="827" math="0" shadow="0">
      <root>
        <mxCell id="0" />
        <mxCell id="1" parent="0" />
        <mxCell id="bSBcgbNWfcfcaY-LwrGX-11" value="" style="group" connectable="0" vertex="1" parent="1">
          <mxGeometry x="-2290" y="-2442" width="1056" height="750" as="geometry" />
        </mxCell>
        <mxCell id="bSBcgbNWfcfcaY-LwrGX-12" value="auth" style="html=1;verticalAlign=bottom;endArrow=block;curved=0;rounded=0;" edge="1" parent="bSBcgbNWfcfcaY-LwrGX-11" target="bSBcgbNWfcfcaY-LwrGX-41">
          <mxGeometry width="80" relative="1" as="geometry">
            <mxPoint x="189.75" y="161.21495327102804" as="sourcePoint" />
            <mxPoint x="602.25" y="161.21495327102804" as="targetPoint" />
          </mxGeometry>
        </mxCell>
        <mxCell id="bSBcgbNWfcfcaY-LwrGX-13" value="Default load" style="html=1;verticalAlign=bottom;endArrow=block;curved=0;rounded=0;" edge="1" parent="bSBcgbNWfcfcaY-LwrGX-11">
          <mxGeometry width="80" relative="1" as="geometry">
            <mxPoint x="189.8325" y="269.1588785046729" as="sourcePoint" />
            <mxPoint x="320.92499999999995" y="269.1588785046729" as="targetPoint" />
          </mxGeometry>
        </mxCell>
        <mxCell id="bSBcgbNWfcfcaY-LwrGX-14" value="Create Inspection Admin Flow" style="swimlane;whiteSpace=wrap;html=1;strokeColor=#CCCCCC;movable=1;resizable=1;rotatable=1;deletable=1;editable=1;locked=0;connectable=1;" vertex="1" parent="bSBcgbNWfcfcaY-LwrGX-11">
          <mxGeometry width="1056" height="750" as="geometry" />
        </mxCell>
        <mxCell id="bSBcgbNWfcfcaY-LwrGX-15" value="Store reminder" style="html=1;verticalAlign=bottom;endArrow=block;curved=0;rounded=0;" edge="1" parent="bSBcgbNWfcfcaY-LwrGX-14" target="bSBcgbNWfcfcaY-LwrGX-19">
          <mxGeometry width="80" relative="1" as="geometry">
            <mxPoint x="602.25" y="602.8037383177569" as="sourcePoint" />
            <mxPoint x="668.25" y="602.8037383177569" as="targetPoint" />
          </mxGeometry>
        </mxCell>
        <mxCell id="bSBcgbNWfcfcaY-LwrGX-16" value="Backend" style="shape=umlLifeline;perimeter=lifelinePerimeter;whiteSpace=wrap;html=1;container=1;dropTarget=0;collapsible=0;recursiveResize=0;outlineConnect=0;portConstraint=eastwest;newEdgeStyle={&quot;curved&quot;:0,&quot;rounded&quot;:0};movable=1;resizable=1;rotatable=1;deletable=1;editable=1;locked=0;connectable=1;" vertex="1" parent="bSBcgbNWfcfcaY-LwrGX-14">
          <mxGeometry x="561" y="42.05607476635514" width="83.32499999999999" height="679.9065420560747" as="geometry" />
        </mxCell>
        <mxCell id="bSBcgbNWfcfcaY-LwrGX-17" value="" style="html=1;points=[[0,0,0,0,5],[0,1,0,0,-5],[1,0,0,0,5],[1,1,0,0,-5]];perimeter=orthogonalPerimeter;outlineConnect=0;targetShapes=umlLifeline;portConstraint=eastwest;newEdgeStyle={&quot;curved&quot;:0,&quot;rounded&quot;:0};" vertex="1" parent="bSBcgbNWfcfcaY-LwrGX-16">
          <mxGeometry x="37.949999999999996" y="543.2242990654205" width="8.249999999999998" height="87.61682242990653" as="geometry" />
        </mxCell>
        <mxCell id="bSBcgbNWfcfcaY-LwrGX-18" value="Add reminder" style="html=1;align=left;spacingLeft=2;endArrow=block;rounded=0;edgeStyle=orthogonalEdgeStyle;curved=0;rounded=0;" edge="1" parent="bSBcgbNWfcfcaY-LwrGX-16" target="bSBcgbNWfcfcaY-LwrGX-17">
          <mxGeometry relative="1" as="geometry">
            <mxPoint x="42.07499999999999" y="529.2056074766354" as="sourcePoint" />
            <Array as="points">
              <mxPoint x="66.82499999999999" y="550.233644859813" />
            </Array>
          </mxGeometry>
        </mxCell>
        <mxCell id="bSBcgbNWfcfcaY-LwrGX-19" value="DB" style="shape=umlLifeline;perimeter=lifelinePerimeter;whiteSpace=wrap;html=1;container=1;dropTarget=0;collapsible=0;recursiveResize=0;outlineConnect=0;portConstraint=eastwest;newEdgeStyle={&quot;curved&quot;:0,&quot;rounded&quot;:0};movable=1;resizable=1;rotatable=1;deletable=1;editable=1;locked=0;connectable=1;" vertex="1" parent="bSBcgbNWfcfcaY-LwrGX-14">
          <mxGeometry x="783.75" y="42.05607476635514" width="83.32499999999999" height="679.9065420560747" as="geometry" />
        </mxCell>
        <mxCell id="bSBcgbNWfcfcaY-LwrGX-20" value="User attaches files" style="html=1;verticalAlign=bottom;startArrow=oval;startFill=1;endArrow=block;startSize=8;curved=0;rounded=0;" edge="1" parent="bSBcgbNWfcfcaY-LwrGX-14" target="bSBcgbNWfcfcaY-LwrGX-28">
          <mxGeometry width="60" relative="1" as="geometry">
            <mxPoint x="33" y="357.47663551401865" as="sourcePoint" />
            <mxPoint x="453.75" y="357.47663551401865" as="targetPoint" />
          </mxGeometry>
        </mxCell>
        <mxCell id="bSBcgbNWfcfcaY-LwrGX-21" value="200 - OK" style="html=1;verticalAlign=bottom;endArrow=open;dashed=1;endSize=8;curved=0;rounded=0;" edge="1" parent="bSBcgbNWfcfcaY-LwrGX-14">
          <mxGeometry relative="1" as="geometry">
            <mxPoint x="981.75" y="508.8785046728971" as="sourcePoint" />
            <mxPoint x="606.3750000000001" y="508.8785046728971" as="targetPoint" />
          </mxGeometry>
        </mxCell>
        <mxCell id="bSBcgbNWfcfcaY-LwrGX-22" value="200 - OK" style="html=1;verticalAlign=bottom;endArrow=open;dashed=1;endSize=8;curved=0;rounded=0;" edge="1" parent="bSBcgbNWfcfcaY-LwrGX-14">
          <mxGeometry relative="1" as="geometry">
            <mxPoint x="825" y="623.1308411214952" as="sourcePoint" />
            <mxPoint x="610.5" y="623.1308411214952" as="targetPoint" />
          </mxGeometry>
        </mxCell>
        <mxCell id="bSBcgbNWfcfcaY-LwrGX-23" value="" style="shape=umlLifeline;perimeter=lifelinePerimeter;whiteSpace=wrap;html=1;container=1;dropTarget=0;collapsible=0;recursiveResize=0;outlineConnect=0;portConstraint=eastwest;newEdgeStyle={&quot;curved&quot;:0,&quot;rounded&quot;:0};participant=umlActor;" vertex="1" parent="bSBcgbNWfcfcaY-LwrGX-11">
          <mxGeometry x="24.75" y="42.05607476635514" width="16.5" height="679.9065420560747" as="geometry" />
        </mxCell>
        <mxCell id="bSBcgbNWfcfcaY-LwrGX-24" value="Login" style="shape=umlLifeline;perimeter=lifelinePerimeter;whiteSpace=wrap;html=1;container=1;dropTarget=0;collapsible=0;recursiveResize=0;outlineConnect=0;portConstraint=eastwest;newEdgeStyle={&quot;curved&quot;:0,&quot;rounded&quot;:0};size=40;" vertex="1" parent="bSBcgbNWfcfcaY-LwrGX-11">
          <mxGeometry x="148.5" y="42.05607476635514" width="82.5" height="679.9065420560747" as="geometry" />
        </mxCell>
        <mxCell id="bSBcgbNWfcfcaY-LwrGX-25" value="" style="html=1;points=[[0,0,0,0,5],[0,1,0,0,-5],[1,0,0,0,5],[1,1,0,0,-5]];perimeter=orthogonalPerimeter;outlineConnect=0;targetShapes=umlLifeline;portConstraint=eastwest;newEdgeStyle={&quot;curved&quot;:0,&quot;rounded&quot;:0};" vertex="1" parent="bSBcgbNWfcfcaY-LwrGX-24">
          <mxGeometry x="37.125" y="98.13084112149532" width="8.25" height="140.18691588785046" as="geometry" />
        </mxCell>
        <mxCell id="bSBcgbNWfcfcaY-LwrGX-26" value="User Validation" style="html=1;align=left;spacingLeft=2;endArrow=block;rounded=0;edgeStyle=orthogonalEdgeStyle;curved=0;rounded=0;" edge="1" parent="bSBcgbNWfcfcaY-LwrGX-24" target="bSBcgbNWfcfcaY-LwrGX-25">
          <mxGeometry relative="1" as="geometry">
            <mxPoint x="41.25" y="84.11214953271028" as="sourcePoint" />
            <Array as="points">
              <mxPoint x="66" y="105.14018691588784" />
            </Array>
          </mxGeometry>
        </mxCell>
        <mxCell id="bSBcgbNWfcfcaY-LwrGX-27" value="Form" style="shape=umlLifeline;perimeter=lifelinePerimeter;whiteSpace=wrap;html=1;container=1;dropTarget=0;collapsible=0;recursiveResize=0;outlineConnect=0;portConstraint=eastwest;newEdgeStyle={&quot;curved&quot;:0,&quot;rounded&quot;:0};" vertex="1" parent="bSBcgbNWfcfcaY-LwrGX-11">
          <mxGeometry x="412.5" y="42.05607476635514" width="83.32499999999999" height="679.9065420560747" as="geometry" />
        </mxCell>
        <mxCell id="bSBcgbNWfcfcaY-LwrGX-28" value="" style="html=1;points=[[0,0,0,0,5],[0,1,0,0,-5],[1,0,0,0,5],[1,1,0,0,-5]];perimeter=orthogonalPerimeter;outlineConnect=0;targetShapes=umlLifeline;portConstraint=eastwest;newEdgeStyle={&quot;curved&quot;:0,&quot;rounded&quot;:0};" vertex="1" parent="bSBcgbNWfcfcaY-LwrGX-27">
          <mxGeometry x="37.12499999999999" y="294.39252336448595" width="9.074999999999998" height="63.0841121495327" as="geometry" />
        </mxCell>
        <mxCell id="bSBcgbNWfcfcaY-LwrGX-29" value="Internal form validation" style="html=1;align=left;spacingLeft=2;endArrow=block;rounded=0;edgeStyle=orthogonalEdgeStyle;curved=0;rounded=0;" edge="1" parent="bSBcgbNWfcfcaY-LwrGX-27" target="bSBcgbNWfcfcaY-LwrGX-28">
          <mxGeometry relative="1" as="geometry">
            <mxPoint x="41.24999999999999" y="280.3738317757009" as="sourcePoint" />
            <Array as="points">
              <mxPoint x="65.99999999999999" y="301.40186915887847" />
            </Array>
          </mxGeometry>
        </mxCell>
        <mxCell id="bSBcgbNWfcfcaY-LwrGX-30" value="" style="html=1;points=[[0,0,0,0,5],[0,1,0,0,-5],[1,0,0,0,5],[1,1,0,0,-5]];perimeter=orthogonalPerimeter;outlineConnect=0;targetShapes=umlLifeline;portConstraint=eastwest;newEdgeStyle={&quot;curved&quot;:0,&quot;rounded&quot;:0};" vertex="1" parent="bSBcgbNWfcfcaY-LwrGX-27">
          <mxGeometry x="37.12499999999999" y="588.7850467289719" width="8.249999999999998" height="56.07476635514017" as="geometry" />
        </mxCell>
        <mxCell id="bSBcgbNWfcfcaY-LwrGX-31" value="User logs in" style="html=1;verticalAlign=bottom;startArrow=oval;startFill=1;endArrow=block;startSize=8;curved=0;rounded=0;" edge="1" parent="bSBcgbNWfcfcaY-LwrGX-11" target="bSBcgbNWfcfcaY-LwrGX-24">
          <mxGeometry width="60" relative="1" as="geometry">
            <mxPoint x="33" y="112.14953271028034" as="sourcePoint" />
            <mxPoint x="82.5" y="112.14953271028034" as="targetPoint" />
          </mxGeometry>
        </mxCell>
        <mxCell id="bSBcgbNWfcfcaY-LwrGX-32" value="User selects to create form" style="html=1;verticalAlign=bottom;startArrow=oval;startFill=1;endArrow=block;startSize=8;curved=0;rounded=0;" edge="1" parent="bSBcgbNWfcfcaY-LwrGX-11" target="bSBcgbNWfcfcaY-LwrGX-34">
          <mxGeometry width="60" relative="1" as="geometry">
            <mxPoint x="33" y="313.31775700934577" as="sourcePoint" />
            <mxPoint x="453.75" y="313.31775700934577" as="targetPoint" />
          </mxGeometry>
        </mxCell>
        <mxCell id="bSBcgbNWfcfcaY-LwrGX-33" value="Send info to backend" style="html=1;verticalAlign=bottom;endArrow=block;curved=0;rounded=0;" edge="1" parent="bSBcgbNWfcfcaY-LwrGX-11">
          <mxGeometry width="80" relative="1" as="geometry">
            <mxPoint x="458.7" y="385.5140186915887" as="sourcePoint" />
            <mxPoint x="602.25" y="385.5140186915887" as="targetPoint" />
          </mxGeometry>
        </mxCell>
        <mxCell id="bSBcgbNWfcfcaY-LwrGX-34" value="Assigned Inspections" style="shape=umlLifeline;perimeter=lifelinePerimeter;whiteSpace=wrap;html=1;container=1;dropTarget=0;collapsible=0;recursiveResize=0;outlineConnect=0;portConstraint=eastwest;newEdgeStyle={&quot;curved&quot;:0,&quot;rounded&quot;:0};size=40;" vertex="1" parent="bSBcgbNWfcfcaY-LwrGX-11">
          <mxGeometry x="279.675" y="42.05607476635514" width="83.32499999999999" height="679.9065420560747" as="geometry" />
        </mxCell>
        <mxCell id="bSBcgbNWfcfcaY-LwrGX-35" value="" style="html=1;points=[[0,0,0,0,5],[0,1,0,0,-5],[1,0,0,0,5],[1,1,0,0,-5]];perimeter=orthogonalPerimeter;outlineConnect=0;targetShapes=umlLifeline;portConstraint=eastwest;newEdgeStyle={&quot;curved&quot;:0,&quot;rounded&quot;:0};" vertex="1" parent="bSBcgbNWfcfcaY-LwrGX-11">
          <mxGeometry x="598.125" y="420.56074766355135" width="8.25" height="126.1682242990654" as="geometry" />
        </mxCell>
        <mxCell id="bSBcgbNWfcfcaY-LwrGX-36" value="backend validation" style="html=1;align=left;spacingLeft=2;endArrow=block;rounded=0;edgeStyle=orthogonalEdgeStyle;curved=0;rounded=0;" edge="1" parent="bSBcgbNWfcfcaY-LwrGX-11" target="bSBcgbNWfcfcaY-LwrGX-35">
          <mxGeometry x="0.0118" relative="1" as="geometry">
            <mxPoint x="602.25" y="406.54205607476626" as="sourcePoint" />
            <Array as="points">
              <mxPoint x="627" y="427.57009345794387" />
            </Array>
            <mxPoint as="offset" />
          </mxGeometry>
        </mxCell>
        <mxCell id="bSBcgbNWfcfcaY-LwrGX-37" value="Upload files" style="html=1;verticalAlign=bottom;endArrow=block;curved=0;rounded=0;" edge="1" parent="bSBcgbNWfcfcaY-LwrGX-11">
          <mxGeometry width="80" relative="1" as="geometry">
            <mxPoint x="606.375" y="487.8504672897196" as="sourcePoint" />
            <mxPoint x="981.75" y="487.8504672897196" as="targetPoint" />
          </mxGeometry>
        </mxCell>
        <mxCell id="bSBcgbNWfcfcaY-LwrGX-38" value="Storage" style="shape=umlLifeline;perimeter=lifelinePerimeter;whiteSpace=wrap;html=1;container=1;dropTarget=0;collapsible=0;recursiveResize=0;outlineConnect=0;portConstraint=eastwest;newEdgeStyle={&quot;curved&quot;:0,&quot;rounded&quot;:0};" vertex="1" parent="bSBcgbNWfcfcaY-LwrGX-11">
          <mxGeometry x="940.5" y="42.05607476635514" width="83.32499999999999" height="679.9065420560747" as="geometry" />
        </mxCell>
        <mxCell id="bSBcgbNWfcfcaY-LwrGX-39" value="Attach files" style="html=1;verticalAlign=bottom;endArrow=block;curved=0;rounded=0;exitX=1;exitY=1;exitDx=0;exitDy=-5;exitPerimeter=0;" edge="1" parent="bSBcgbNWfcfcaY-LwrGX-11">
          <mxGeometry width="80" relative="1" as="geometry">
            <mxPoint x="458.7" y="363.68691588785055" as="sourcePoint" />
            <mxPoint x="602.25" y="363.68691588785055" as="targetPoint" />
          </mxGeometry>
        </mxCell>
        <mxCell id="bSBcgbNWfcfcaY-LwrGX-40" value="Form content" style="html=1;verticalAlign=bottom;endArrow=block;curved=0;rounded=0;" edge="1" parent="bSBcgbNWfcfcaY-LwrGX-11">
          <mxGeometry width="80" relative="1" as="geometry">
            <mxPoint x="606.375" y="444.89018691588785" as="sourcePoint" />
            <mxPoint x="825" y="444.89018691588785" as="targetPoint" />
          </mxGeometry>
        </mxCell>
        <mxCell id="bSBcgbNWfcfcaY-LwrGX-41" value="" style="html=1;points=[[0,0,0,0,5],[0,1,0,0,-5],[1,0,0,0,5],[1,1,0,0,-5]];perimeter=orthogonalPerimeter;outlineConnect=0;targetShapes=umlLifeline;portConstraint=eastwest;newEdgeStyle={&quot;curved&quot;:0,&quot;rounded&quot;:0};" vertex="1" parent="bSBcgbNWfcfcaY-LwrGX-11">
          <mxGeometry x="598.125" y="147.19626168224298" width="8.25" height="56.07476635514017" as="geometry" />
        </mxCell>
        <mxCell id="bSBcgbNWfcfcaY-LwrGX-42" value="auth" style="html=1;verticalAlign=bottom;endArrow=block;curved=0;rounded=0;" edge="1" parent="bSBcgbNWfcfcaY-LwrGX-11">
          <mxGeometry width="80" relative="1" as="geometry">
            <mxPoint x="606.375" y="173.1308411214953" as="sourcePoint" />
            <mxPoint x="816.75" y="173.1308411214953" as="targetPoint" />
          </mxGeometry>
        </mxCell>
        <mxCell id="bSBcgbNWfcfcaY-LwrGX-43" value="return user object" style="html=1;verticalAlign=bottom;endArrow=open;dashed=1;endSize=8;curved=0;rounded=0;" edge="1" parent="bSBcgbNWfcfcaY-LwrGX-11">
          <mxGeometry relative="1" as="geometry">
            <mxPoint x="825" y="190.65420560747665" as="sourcePoint" />
            <mxPoint x="606.375" y="190.65420560747665" as="targetPoint" />
          </mxGeometry>
        </mxCell>
        <mxCell id="bSBcgbNWfcfcaY-LwrGX-44" value="" style="html=1;points=[[0,0,0,0,5],[0,1,0,0,-5],[1,0,0,0,5],[1,1,0,0,-5]];perimeter=orthogonalPerimeter;outlineConnect=0;targetShapes=umlLifeline;portConstraint=eastwest;newEdgeStyle={&quot;curved&quot;:0,&quot;rounded&quot;:0};" vertex="1" parent="bSBcgbNWfcfcaY-LwrGX-11">
          <mxGeometry x="598.125" y="231.30841121495325" width="8.25" height="28.037383177570085" as="geometry" />
        </mxCell>
        <mxCell id="bSBcgbNWfcfcaY-LwrGX-45" value="Validate user password" style="html=1;align=left;spacingLeft=2;endArrow=block;rounded=0;edgeStyle=orthogonalEdgeStyle;curved=0;rounded=0;" edge="1" parent="bSBcgbNWfcfcaY-LwrGX-11" target="bSBcgbNWfcfcaY-LwrGX-44">
          <mxGeometry relative="1" as="geometry">
            <mxPoint x="602.25" y="217.28971962616822" as="sourcePoint" />
            <Array as="points">
              <mxPoint x="627" y="238.31775700934574" />
            </Array>
          </mxGeometry>
        </mxCell>
        <mxCell id="bSBcgbNWfcfcaY-LwrGX-46" value="200 - OK" style="html=1;verticalAlign=bottom;endArrow=open;dashed=1;endSize=8;curved=0;rounded=0;" edge="1" parent="bSBcgbNWfcfcaY-LwrGX-11" source="bSBcgbNWfcfcaY-LwrGX-44">
          <mxGeometry relative="1" as="geometry">
            <mxPoint x="470.25" y="259.3457943925233" as="sourcePoint" />
            <mxPoint x="198" y="245.3271028037383" as="targetPoint" />
          </mxGeometry>
        </mxCell>
        <mxCell id="bSBcgbNWfcfcaY-LwrGX-47" value="" style="html=1;points=[[0,0,0,0,5],[0,1,0,0,-5],[1,0,0,0,5],[1,1,0,0,-5]];perimeter=orthogonalPerimeter;outlineConnect=0;targetShapes=umlLifeline;portConstraint=eastwest;newEdgeStyle={&quot;curved&quot;:0,&quot;rounded&quot;:0};" vertex="1" parent="bSBcgbNWfcfcaY-LwrGX-11">
          <mxGeometry x="820.875" y="147.19626168224298" width="8.25" height="56.07476635514017" as="geometry" />
        </mxCell>
        <mxCell id="bSBcgbNWfcfcaY-LwrGX-48" value="200 - OK" style="html=1;verticalAlign=bottom;endArrow=open;dashed=1;endSize=8;curved=0;rounded=0;" edge="1" parent="bSBcgbNWfcfcaY-LwrGX-11">
          <mxGeometry relative="1" as="geometry">
            <mxPoint x="825" y="462.6168224299065" as="sourcePoint" />
            <mxPoint x="606.3750000000001" y="462.6168224299065" as="targetPoint" />
          </mxGeometry>
        </mxCell>
        <mxCell id="bSBcgbNWfcfcaY-LwrGX-49" value="200 - OK" style="html=1;verticalAlign=bottom;endArrow=open;dashed=1;endSize=8;curved=0;rounded=0;" edge="1" parent="bSBcgbNWfcfcaY-LwrGX-11">
          <mxGeometry relative="1" as="geometry">
            <mxPoint x="598.1250000000001" y="665.8878504672896" as="sourcePoint" />
            <mxPoint x="457.875" y="665.8878504672896" as="targetPoint" />
          </mxGeometry>
        </mxCell>
        <mxCell id="bSBcgbNWfcfcaY-LwrGX-50" value="Form create successfully" style="html=1;verticalAlign=bottom;endArrow=open;dashed=1;endSize=8;curved=0;rounded=0;" edge="1" parent="bSBcgbNWfcfcaY-LwrGX-11">
          <mxGeometry relative="1" as="geometry">
            <mxPoint x="445.50000000000017" y="679.9065420560747" as="sourcePoint" />
            <mxPoint x="32.38125" y="679.9065420560747" as="targetPoint" />
          </mxGeometry>
        </mxCell>
      </root>
    </mxGraphModel>
  </diagram>
</mxfile>
